<?xml version="1.0" encoding="utf-8"?>
<!-- Generator: Adobe Illustrator 24.0.3, SVG Export Plug-In . SVG Version: 6.00 Build 0)  -->
<svg version="1.1" id="Layer_1" xmlns="http://www.w3.org/2000/svg" xmlns:xlink="http://www.w3.org/1999/xlink" x="0px" y="0px"
	 viewBox="0 0 24 24" style="enable-background:new 0 0 24 24;" xml:space="preserve">
<style type="text/css">
	.st0{fill:none;}
	.st1{fill:#FFFFFF;}
	.st2{font-family:'Poppins-SemiBold';}
	.st3{font-size:6px;}
</style>
<rect class="st0" width="24" height="24"/>
<path class="st1" d="M12,5V2.2c0-0.5-0.5-0.7-0.9-0.4L7.3,5.7c-0.2,0.2-0.2,0.5,0,0.7l3.8,3.8c0.3,0.3,0.9,0.1,0.9-0.4V7
	c3.7,0,6.7,3.4,5.9,7.3c-0.5,2.3-2.3,4.1-4.6,4.6c-3.6,0.8-6.8-1.7-7.2-5C6,13.4,5.6,13,5.1,13c-0.6,0-1.1,0.5-1,1.1
	c0.6,4.4,4.8,7.6,9.5,6.7c3.1-0.6,5.6-3.1,6.2-6.2C20.8,9.5,16.9,5,12,5z"/>
<text transform="matrix(1 0 0 1 8.2651 16.0942)" class="st1 st2 st3">30</text>
</svg>
