<?xml version="1.0" encoding="utf-8"?>
<!-- Generator: Adobe Illustrator 24.0.3, SVG Export Plug-In . SVG Version: 6.00 Build 0)  -->
<svg version="1.1" id="Layer_1" xmlns="http://www.w3.org/2000/svg" xmlns:xlink="http://www.w3.org/1999/xlink" x="0px" y="0px"
	 viewBox="0 0 24 24" style="enable-background:new 0 0 24 24;" xml:space="preserve">
<style type="text/css">
	.st0{fill:#FFFFFF;}
	.st1{font-family:'Poppins-SemiBold';}
	.st2{font-size:6px;}
	.st3{fill:none;}
</style>
<text transform="matrix(1 0 0 1 8.2651 16.0942)" class="st0 st1 st2">30</text>
<rect class="st3" width="24" height="24"/>
<path class="st0" d="M18.9,13c-0.5,0-0.9,0.4-1,0.9c-0.5,3.4-3.8,5.8-7.4,5c-2.2-0.5-3.9-2.3-4.4-4.5C5.3,10.4,8.3,7,12,7v2.8
	c0,0.4,0.5,0.7,0.9,0.4l3.8-3.8c0.2-0.2,0.2-0.5,0-0.7l-3.8-3.8C12.5,1.5,12,1.8,12,2.2V5c-4.9,0-8.8,4.5-7.8,9.6
	c0.6,3.1,2.9,5.5,6,6.2c4.8,1.1,9.2-2.2,9.8-6.7C20,13.5,19.5,13,18.9,13z"/>
</svg>
